#!OML:ASF E:\motion texture\Top Level 1\Subject 1\Session 1\male.ASF
:FULLY-SPECIFIED
:DEGREES
276
root -6.68603 17.5714 3.92399 490.6 -78.9576 -486.551
lowerback -4.34317 1.90867 7.42551
upperback -2.91075 2.15504 2.78289
thorax -0.40653 0.945753 -1.19535
lowerneck -17.6929 -4.67956 -6.40444
upperneck 16.7001 -6.38388 7.6267
head 8.57955 -2.68301 2.81164
rclavicle 1.05309e-014 5.92378e-014
rhumerus -34.558 12.3433 -90.5287
rradius 69.4422
rwrist -0.850457
rhand -10.0101 -8.56714
rfingers 7.12502
rthumb 15.974 -37.9285
lclavicle 1.05309e-014 5.92378e-014
lhumerus -42.9324 3.81384 89.9642
lradius 45.8906
lwrist -3.86005
lhand -10.8916 2.93655
lfingers 7.12502
lthumb 15.1249 32.3639
rfemur 5.47093 1.20079 28.466
rtibia 35.9811
rfoot 360.356 7.42443
rtoes -0.517619
lfemur -31.9481 6.21637 -11.3918
ltibia 36.422
lfoot 359.251 -5.93044
ltoes 1.56232
277
root -6.86073 17.5571 3.95027 490.156 -79.8638 -486.267
lowerback -4.25851 1.53809 6.73533
upperback -3.01249 1.70747 2.68921
thorax -0.606568 0.726668 -0.93409
lowerneck -17.7321 -4.60043 -6.33849
upperneck 16.9948 -6.30505 7.57464
head 8.67614 -2.64502 2.79475
rclavicle -1.20575e-014 -2.83268e-015
rhumerus -36.6331 11.4221 -90.1391
rradius 68.793
rwrist -0.0420742
rhand -9.89605 -8.38534
rfingers 7.12502
rthumb 16.0838 -37.7379
lclavicle -1.20575e-014 -2.83268e-015
lhumerus -41.5141 3.024 91.8498
lradius 46.8901
lwrist -3.68436
lhand -11.0767 2.51049
lfingers 7.12502
lthumb 14.9466 31.9512
rfemur 3.68071 -0.181814 26.8345
rtibia 39.4734
rfoot 364.494 7.42296
rtoes 1.08962
lfemur -30.0406 5.25173 -12.6087
ltibia 34.5073
lfoot 357.647 -5.19428
ltoes 3.72867
278
root -7.01959 17.548 3.97433 489.283 -81.0167 -485.625
lowerback -3.97315 1.08362 5.8259
upperback -3.08134 1.17144 2.56199
thorax -0.883631 0.468664 -0.587854
lowerneck -17.8056 -4.52225 -6.24385
upperneck 17.2049 -6.22024 7.49957
head 8.7483 -2.60405 2.76529
rclavicle 1.2424e-015 2.90226e-014
rhumerus -38.5963 10.4589 -89.6142
rradius 68.1619
rwrist 0.702814
rhand -9.80554 -8.20751
rfingers 7.12502
rthumb 16.1709 -37.553
lclavicle 1.2424e-015 2.90226e-014
lhumerus -39.936 2.02803 93.7235
lradius 47.9062
lwrist -3.66504
lhand -11.2194 2.22603
lfingers 7.12502
lthumb 14.8091 31.6769
rfemur 1.68935 -1.58239 25.1001
rtibia 43.1913
rfoot 369.094 7.07908
rtoes 3.20096
lfemur -28.582 3.98019 -13.98
ltibia 33.1774
lfoot 356.64 -4.57355
ltoes 5.21342
279
root -7.1627 17.5428 3.99458 487.747 -82.3403 -484.386
lowerback -3.50214 0.573287 4.75111
upperback -3.10261 0.570762 2.41494
thorax -1.20535 0.184515 -0.165012
lowerneck -17.9253 -4.45025 -6.13091
upperneck 17.3178 -6.13575 7.41821
head 8.79521 -2.56166 2.72953
rclavicle -3.39176e-015 -1.69961e-014
rhumerus -40.4401 9.46333 -88.9647
rradius 67.5762
rwrist 1.27896
rhand -9.72885 -8.05918
rfingers 7.12502
rthumb 16.2447 -37.3986
lclavicle -3.39176e-015 -1.69961e-014
lhumerus -38.2026 0.792723 95.5476
lradius 48.9535
lwrist -3.7178
lhand -11.3045 2.16924
lfingers 7.12502
lthumb 14.7272 31.6261
rfemur -0.484861 -2.93009 23.3688
rtibia 47.1378
rfoot 373.763 6.62878
rtoes 5.76109
lfemur -27.5711 2.50419 -15.4069
ltibia 32.5705
lfoot 355.977 -4.22542
ltoes 6.10628
280
root -7.29228 17.54 4.00984 485.373 -83.7162 -482.381
lowerback -2.86538 0.0491866 3.58616
upperback -3.05915 -0.0523206 2.26565
thorax -1.53584 -0.104969 0.316843
lowerneck -18.0899 -4.38795 -6.01333
upperneck 17.3283 -6.05595 7.34524
head 8.81601 -2.51937 2.69419
rclavicle -8.57259e-015 -9.93923e-015
rhumerus -42.1716 8.43838 -88.2081
rradius 67.058
rwrist 1.67089
rhand -9.69043 -7.93818
rfingers 7.12502
rthumb 16.2817 -37.2746
lclavicle -8.57259e-015 -9.93923e-015
lhumerus -36.3464 -0.692314 97.27
lradius 50.0299
lwrist -3.74736
lhand -11.3032 2.23022
lfingers 7.12502
lthumb 14.7284 31.687
rfemur -2.81057 -4.14062 21.7436
rtibia 51.3317
rfoot 377.931 6.34615
rtoes 8.55579
lfemur -26.8855 1.0328 -16.7932
ltibia 32.5929
lfoot 355.448 -4.20105
ltoes 6.62013
